<?xml version="1.0" encoding="UTF-8"?>
<svg width="1108px" height="587px" viewBox="0 0 1108 587" version="1.1" xmlns="http://www.w3.org/2000/svg" xmlns:xlink="http://www.w3.org/1999/xlink">
    <title>Artboard</title>
    <defs>
        <path d="M0,0 L1108,0 L1108,587 L0,587 L0,0 Z" id="path-1"></path>
    </defs>
    <g id="Artboard" stroke="none" fill="none" xlink:href="#path-1">
        <use fill="#545559" fill-rule="evenodd" xlink:href="#path-1"></use>
        <line x1="616" y1="104" x2="616" y2="482" id="Line" stroke="#7E858C" stroke-width="2" stroke-linecap="square"></line>
        <line x1="633.5" y1="-143.5" x2="633.5" y2="735.5" id="Line" stroke="#7E858C" stroke-width="2" stroke-linecap="square" transform="translate(633.5, 296) scale(-1, 1) rotate(90) translate(-633.5, -296)"></line>
        <text id="Buyer-(choice)" font-family="Poppins-Light, Poppins" font-size="42" font-weight="300" fill="#FFFFFF">
            <tspan x="253" y="65">Buyer (choice)</tspan>
        </text>
        <text id="Call" font-family="Poppins-Light, Poppins" font-size="42" font-weight="300" fill="#FFFFFF">
            <tspan x="72" y="199">Call</tspan>
        </text>
        <text id="Put" font-family="Poppins-Light, Poppins" font-size="42" font-weight="300" fill="#FFFFFF">
            <tspan x="79" y="397">Put</tspan>
        </text>
        <text id="Seller-(obligation)" font-family="Poppins-Light, Poppins" font-size="42" font-weight="300" fill="#9DD4E6">
            <tspan x="683" y="65">Seller (obligation)</tspan>
        </text>
        <text id="Sell-XYZ-at-the-stri" font-family="Poppins-Bold, Poppins" font-size="24" font-weight="bold" fill="#FFFFFF">
            <tspan x="240.144" y="382">Sell</tspan>
            <tspan x="283.848" y="382" font-family="Poppins-Light, Poppins" font-weight="300"> XYZ at the strike $K and </tspan>
            <tspan x="278.676" y="415" font-family="Poppins-Light, Poppins" font-weight="300">buy at the market $S</tspan>
        </text>
        <text id="Buy-XYZ-at-the-strik" font-family="Poppins-Bold, Poppins" font-size="24" font-weight="bold" fill="#89CCE2">
            <tspan x="696.416" y="382">Buy</tspan>
            <tspan x="743.576" y="382" font-family="Poppins-Light, Poppins" font-weight="300"> XYZ at the strike $K and </tspan>
            <tspan x="700.316" y="415" font-family="Poppins-Light, Poppins" font-weight="300">sell (hold) at the market $S</tspan>
        </text>
        <text id="Buy-XYZ-at-the-strik" font-family="Poppins-Bold, Poppins" font-size="24" font-weight="bold" fill="#FFFFFF">
            <tspan x="238.416" y="163">Buy</tspan>
            <tspan x="285.576" y="163" font-family="Poppins-Light, Poppins" font-weight="300"> XYZ at the strike $K and </tspan>
            <tspan x="281.832" y="196" font-family="Poppins-Light, Poppins" font-weight="300">sell at the market $S</tspan>
        </text>
        <text id="Sell-XYZ-at-the-stri" font-family="Poppins-Bold, Poppins" font-size="24" font-weight="bold" fill="#9DD4E6">
            <tspan x="698.144" y="167">Sell</tspan>
            <tspan x="741.848" y="167" font-family="Poppins-Light, Poppins" font-weight="300"> XYZ at the strike $K and </tspan>
            <tspan x="736.676" y="200" font-family="Poppins-Light, Poppins" font-weight="300">buy at the market $S</tspan>
        </text>
        <line x1="270.5" y1="507.5" x2="540.5" y2="507.5" id="Line-2" stroke="#FFFFFF" stroke-width="1" stroke-linecap="square"></line>
        <line x1="731.5" y1="507.5" x2="1001.5" y2="507.5" id="Line-2" stroke="#89CCE2" stroke-width="1" stroke-linecap="square"></line>
        <text id="long-(debit)" font-family="Poppins-Light, Poppins" font-size="36" font-weight="300" fill="#FFFFFF">
            <tspan x="300" y="556">long (debit)</tspan>
        </text>
        <text id="short-(credit)" font-family="Poppins-Light, Poppins" font-size="36" font-weight="300" fill="#89CCE2">
            <tspan x="750" y="556">short (credit)</tspan>
        </text>
        <path id="Line-3" d="M194.017545,147.710326 L194.879359,149.265245 L201.553755,161.307459 L202.038525,162.182101 L200.289242,163.151641 L199.804472,162.277 L194.98,153.572 L194.929284,161.746982 L194.49998,230.006289 L194.493691,231.006269 L192.493731,230.993691 L192.50002,229.993711 L192.929324,161.734403 L192.98,153.562 L188.047855,162.203059 L187.552122,163.071534 L185.815172,162.080067 L186.310905,161.211592 L193.136242,149.254282 L194.017545,147.710326 Z" fill="#FFFFFF" fill-rule="nonzero"></path>
        <path id="Line-3" d="M658.006309,149.493731 L660.006269,149.506309 L659.99998,150.506289 L659.570676,218.765597 L659.519,226.937 L664.452145,218.296941 L664.947878,217.428466 L666.684828,218.419933 L666.189095,219.288408 L659.363758,231.245718 L658.482455,232.789674 L657.620641,231.234755 L650.946245,219.192541 L650.461475,218.317899 L652.210758,217.348359 L652.695528,218.223 L657.519,226.927 L657.570716,218.753018 L658.00002,150.493711 L658.006309,149.493731 Z" fill="#89CCE2" fill-rule="nonzero"></path>
        <path id="Line-3" d="M659.017545,352.710326 L659.879359,354.265245 L666.553755,366.307459 L667.038525,367.182101 L665.289242,368.151641 L664.804472,367.277 L659.98,358.572 L659.929284,366.746982 L659.49998,435.006289 L659.493691,436.006269 L657.493731,435.993691 L657.50002,434.993711 L657.929324,366.734403 L657.98,358.562 L653.047855,367.203059 L652.552122,368.071534 L650.815172,367.080067 L651.310905,366.211592 L658.136242,354.254282 L659.017545,352.710326 Z" fill="#89CCE2" fill-rule="nonzero"></path>
        <path id="Line-3" d="M193.006309,354.493731 L195.006269,354.506309 L194.99998,355.506289 L194.570676,423.765597 L194.519,431.937 L199.452145,423.296941 L199.947878,422.428466 L201.684828,423.419933 L201.189095,424.288408 L194.363758,436.245718 L193.482455,437.789674 L192.620641,436.234755 L185.946245,424.192541 L185.461475,423.317899 L187.210758,422.348359 L187.695528,423.223 L192.519,431.927 L192.570716,423.753018 L193.00002,355.493711 L193.006309,354.493731 Z" fill="#FFFFFF" fill-rule="nonzero"></path>
        <text id="Bearish" font-family="Poppins-Light, Poppins" font-size="24" font-weight="300" fill="#9DD4E6">
            <tspan x="638.464" y="125">Bearish</tspan>
        </text>
        <text id="Bearish" font-family="Poppins-Light, Poppins" font-size="24" font-weight="300" fill="#FFFFFF">
            <tspan x="179.464" y="331">Bearish</tspan>
        </text>
        <text id="Bullish" font-family="Poppins-Light, Poppins" font-size="24" font-weight="300" fill="#89CCE2">
            <tspan x="638.28" y="331">Bullish</tspan>
        </text>
        <text id="Bullish" font-family="Poppins-Light, Poppins" font-size="24" font-weight="300" fill="#FFFFFF">
            <tspan x="179.28" y="125">Bullish</tspan>
        </text>
        <text id="BTO/STC" font-family="Poppins-Regular, Poppins" font-size="24" font-weight="normal" fill="#FFFFFF">
            <tspan x="171.208" y="268">BTO/STC</tspan>
        </text>
        <text id="STO/BTC" font-family="Poppins-Regular, Poppins" font-size="24" font-weight="normal" fill="#9DD4E6">
            <tspan x="638.208" y="268">STO/BTC</tspan>
        </text>
        <text id="STO/BTC" font-family="Poppins-Regular, Poppins" font-size="24" font-weight="normal" fill="#89CCE2">
            <tspan x="633.208" y="479">STO/BTC</tspan>
        </text>
        <text id="BTO/STC" font-family="Poppins-Regular, Poppins" font-size="24" font-weight="normal" fill="#FFFFFF">
            <tspan x="171.208" y="479">BTO/STC</tspan>
        </text>
        <g id="Group" stroke-width="1" fill-rule="evenodd" transform="translate(299, 215)">
            <rect id="Rectangle" stroke="#545559" fill="#6DD400" x="95.5" y="33.5" width="24" height="23"></rect>
            <rect id="Rectangle" stroke="#545559" fill="#6DD400" x="218.5" y="33.5" width="24" height="23"></rect>
            <rect id="Rectangle" stroke="#545559" fill="#6DD400" x="187.5" y="33.5" width="24" height="23"></rect>
            <rect id="Rectangle" stroke="#545559" fill="#E02020" x="157.5" y="33.5" width="24" height="23"></rect>
            <rect id="Rectangle" stroke="#545559" fill="#6DD400" x="126.5" y="33.5" width="24" height="23"></rect>
            <text id="D" font-family="Poppins-Light, Poppins" font-size="24" font-weight="300" fill="#FFFFFF">
                <tspan x="99.528" y="25">D</tspan>
            </text>
            <text id="Greeks" font-family="Poppins-Light, Poppins" font-size="24" font-weight="300" fill="#FFFFFF">
                <tspan x="0.464" y="53">Greeks</tspan>
            </text>
            <text id="G" font-family="Poppins-Light, Poppins" font-size="24" font-weight="300" fill="#FFFFFF">
                <tspan x="129.616" y="25">G</tspan>
            </text>
            <text id="T" font-family="Poppins-Light, Poppins" font-size="24" font-weight="300" fill="#FFFFFF">
                <tspan x="163.76" y="25">T</tspan>
            </text>
            <text id="V" font-family="Poppins-Light, Poppins" font-size="24" font-weight="300" fill="#FFFFFF">
                <tspan x="192.092" y="25">V</tspan>
            </text>
            <text id="R" font-family="Poppins-Light, Poppins" font-size="24" font-weight="300" fill="#FFFFFF">
                <tspan x="223.956" y="25">R</tspan>
            </text>
        </g>
        <g id="Group" stroke-width="1" fill-rule="evenodd" transform="translate(768, 215)">
            <rect id="Rectangle" stroke="#545559" fill="#E02020" x="95.5" y="33.5" width="24" height="23"></rect>
            <rect id="Rectangle" stroke="#545559" fill="#E02020" x="218.5" y="33.5" width="24" height="23"></rect>
            <rect id="Rectangle" stroke="#545559" fill="#E02020" x="187.5" y="33.5" width="24" height="23"></rect>
            <rect id="Rectangle" stroke="#545559" fill="#6DD400" x="157.5" y="33.5" width="24" height="23"></rect>
            <rect id="Rectangle" stroke="#545559" fill="#E02020" x="126.5" y="33.5" width="24" height="23"></rect>
            <text id="D" font-family="Poppins-Light, Poppins" font-size="24" font-weight="300" fill="#89CCE2">
                <tspan x="99.528" y="25">D</tspan>
            </text>
            <text id="Greeks" font-family="Poppins-Light, Poppins" font-size="24" font-weight="300" fill="#89CCE2">
                <tspan x="0.464" y="53">Greeks</tspan>
            </text>
            <text id="G" font-family="Poppins-Light, Poppins" font-size="24" font-weight="300" fill="#89CCE2">
                <tspan x="129.616" y="25">G</tspan>
            </text>
            <text id="T" font-family="Poppins-Light, Poppins" font-size="24" font-weight="300" fill="#89CCE2">
                <tspan x="163.76" y="25">T</tspan>
            </text>
            <text id="V" font-family="Poppins-Light, Poppins" font-size="24" font-weight="300" fill="#89CCE2">
                <tspan x="192.092" y="25">V</tspan>
            </text>
            <text id="R" font-family="Poppins-Light, Poppins" font-size="24" font-weight="300" fill="#89CCE2">
                <tspan x="223.956" y="25">R</tspan>
            </text>
        </g>
        <g id="Group" stroke-width="1" fill-rule="evenodd" transform="translate(768, 426)">
            <rect id="Rectangle" stroke="#545559" fill="#6DD400" x="95.5" y="33.5" width="24" height="23"></rect>
            <rect id="Rectangle" stroke="#545559" fill="#6DD400" x="218.5" y="33.5" width="24" height="23"></rect>
            <rect id="Rectangle" stroke="#545559" fill="#E02020" x="187.5" y="33.5" width="24" height="23"></rect>
            <rect id="Rectangle" stroke="#545559" fill="#6DD400" x="157.5" y="33.5" width="24" height="23"></rect>
            <rect id="Rectangle" stroke="#545559" fill="#E02020" x="126.5" y="33.5" width="24" height="23"></rect>
            <text id="D" font-family="Poppins-Light, Poppins" font-size="24" font-weight="300" fill="#89CCE2">
                <tspan x="99.528" y="25">D</tspan>
            </text>
            <text id="Greeks" font-family="Poppins-Light, Poppins" font-size="24" font-weight="300" fill="#89CCE2">
                <tspan x="0.464" y="53">Greeks</tspan>
            </text>
            <text id="G" font-family="Poppins-Light, Poppins" font-size="24" font-weight="300" fill="#89CCE2">
                <tspan x="129.616" y="25">G</tspan>
            </text>
            <text id="T" font-family="Poppins-Light, Poppins" font-size="24" font-weight="300" fill="#89CCE2">
                <tspan x="163.76" y="25">T</tspan>
            </text>
            <text id="V" font-family="Poppins-Light, Poppins" font-size="24" font-weight="300" fill="#89CCE2">
                <tspan x="192.092" y="25">V</tspan>
            </text>
            <text id="R" font-family="Poppins-Light, Poppins" font-size="24" font-weight="300" fill="#89CCE2">
                <tspan x="223.956" y="25">R</tspan>
            </text>
        </g>
        <g id="Group" stroke-width="1" fill-rule="evenodd" transform="translate(301, 426)">
            <rect id="Rectangle" stroke="#545559" fill="#E02020" x="95.5" y="33.5" width="24" height="23"></rect>
            <rect id="Rectangle" stroke="#545559" fill="#E02020" x="218.5" y="33.5" width="24" height="23"></rect>
            <rect id="Rectangle" stroke="#545559" fill="#6DD400" x="187.5" y="33.5" width="24" height="23"></rect>
            <rect id="Rectangle" stroke="#545559" fill="#E02020" x="157.5" y="33.5" width="24" height="23"></rect>
            <rect id="Rectangle" stroke="#545559" fill="#6DD400" x="126.5" y="33.5" width="24" height="23"></rect>
            <text id="D" font-family="Poppins-Light, Poppins" font-size="24" font-weight="300" fill="#FFFFFF">
                <tspan x="99.528" y="25">D</tspan>
            </text>
            <text id="Greeks" font-family="Poppins-Light, Poppins" font-size="24" font-weight="300" fill="#FFFFFF">
                <tspan x="0.464" y="53">Greeks</tspan>
            </text>
            <text id="G" font-family="Poppins-Light, Poppins" font-size="24" font-weight="300" fill="#FFFFFF">
                <tspan x="129.616" y="25">G</tspan>
            </text>
            <text id="T" font-family="Poppins-Light, Poppins" font-size="24" font-weight="300" fill="#FFFFFF">
                <tspan x="163.76" y="25">T</tspan>
            </text>
            <text id="V" font-family="Poppins-Light, Poppins" font-size="24" font-weight="300" fill="#FFFFFF">
                <tspan x="192.092" y="25">V</tspan>
            </text>
            <text id="R" font-family="Poppins-Light, Poppins" font-size="24" font-weight="300" fill="#FFFFFF">
                <tspan x="223.956" y="25">R</tspan>
            </text>
        </g>
        <rect id="Rectangle" stroke="#545559" stroke-width="1" fill="#6DD400" fill-rule="evenodd" x="12.5" y="19.5" width="24" height="23"></rect>
        <rect id="Rectangle" stroke="#545559" stroke-width="1" fill="#E02020" fill-rule="evenodd" x="12.5" y="53.5" width="24" height="23"></rect>
        <text id="positive" font-family="Poppins-Light, Poppins" font-size="24" font-weight="300" fill="#FFFFFF">
            <tspan x="45.28" y="39">positive</tspan>
        </text>
        <text id="negative" font-family="Poppins-Light, Poppins" font-size="24" font-weight="300" fill="#FFFFFF">
            <tspan x="46.692" y="72">negative</tspan>
        </text>
    </g>
</svg>