<?xml version="1.0" encoding="UTF-8"?>
<svg width="411px" height="334px" viewBox="0 0 411 334" version="1.1" xmlns="http://www.w3.org/2000/svg" xmlns:xlink="http://www.w3.org/1999/xlink">
    <title>zero-coupon</title>
    <g id="zero-coupon" stroke="none" fill="none">
        <ellipse id="Oval" stroke="#89CCE2" stroke-width="3" cx="106" cy="212" rx="45.5" ry="46.5"></ellipse>
        <ellipse id="Oval" fill="#FFDA31" fill-rule="evenodd" cx="241" cy="213" rx="47" ry="48"></ellipse>
        <line x1="6.5" y1="212.5" x2="349" y2="212" id="Line" stroke="#000000" stroke-width="2" stroke-linecap="square"></line>
        <path d="M348.5,206 L355,218.277778 C352.512346,216.351852 350.466049,215.388889 348.861111,215.388889 C347.256173,215.388889 344.969136,216.351852 342,218.277778 L348.5,206 Z" id="Triangle" fill="#000000" fill-rule="evenodd" transform="translate(348.5, 212.1389) rotate(90) translate(-348.5, -212.1389)"></path>
        <g id="Group-2" stroke-width="1" fill-rule="evenodd" transform="translate(100, 129)">
            <path d="M6.5,57 L13,69.2777778 C10.5123457,67.3518519 8.46604938,66.3888889 6.86111111,66.3888889 C5.25617284,66.3888889 2.9691358,67.3518519 0,69.2777778 L6.5,57 Z" id="Triangle" fill="#000000" transform="translate(6.5, 63.1389) rotate(-180) translate(-6.5, -63.1389)"></path>
            <line x1="6.5" y1="0.5" x2="6.5" y2="61.5" id="Line-2" stroke="#000000" stroke-width="2" stroke-linecap="square"></line>
        </g>
        <g id="Group-2" stroke-width="1" fill-rule="evenodd" transform="translate(241.5, 162.6389) rotate(-180) translate(-241.5, -162.6389)translate(235, 128)">
            <path d="M6.5,57 L13,69.2777778 C10.5123457,67.3518519 8.46604938,66.3888889 6.86111111,66.3888889 C5.25617284,66.3888889 2.9691358,67.3518519 -3.72632807e-14,69.2777778 L6.5,57 Z" id="Triangle" fill="#000000" transform="translate(6.5, 63.1389) rotate(-180) translate(-6.5, -63.1389)"></path>
            <line x1="6.5" y1="0.5" x2="6.5" y2="61.5" id="Line-2" stroke="#000000" stroke-width="2" stroke-linecap="square"></line>
        </g>
        <circle id="Oval" stroke="#000000" stroke-width="1" fill="#FFFDFD" fill-rule="evenodd" cx="106" cy="213" r="6.5"></circle>
        <circle id="Oval" stroke="#000000" stroke-width="1" fill="#FFFDFD" fill-rule="evenodd" cx="241" cy="213" r="6.5"></circle>
        <text id="Time" font-family="ArialMT, Arial" font-size="21" font-weight="normal" fill="#000000">
            <tspan x="358" y="219">Time</tspan>
        </text>
        <text id="VB" font-family="ArialMT, Arial" font-size="21" font-weight="normal" fill="#000000">
            <tspan x="92" y="112">V</tspan>
            <tspan x="106.006836" y="112">B</tspan>
        </text>
        <text id="VP" font-family="ArialMT, Arial" font-size="21" font-weight="normal" fill="#000000">
            <tspan x="231" y="115">V</tspan>
            <tspan x="245.006836" y="115">P</tspan>
        </text>
        <text id="Start-(current)" font-family="ArialMT, Arial" font-size="21" font-weight="normal" fill="#000000">
            <tspan x="83.8259277" y="292">Start </tspan>
            <tspan x="66.3276367" y="315">(current)</tspan>
        </text>
        <text id="Future" font-family="ArialMT, Arial" font-size="21" font-weight="normal" fill="#000000">
            <tspan x="210" y="51">Future</tspan>
        </text>
        <text id="t-=-0" font-family="ArialMT, Arial" font-size="18" font-weight="normal" fill="#000000">
            <tspan x="88" y="241">t = 0</tspan>
        </text>
        <text id="t-=-T" font-family="ArialMT, Arial" font-size="18" font-weight="normal" fill="#000000">
            <tspan x="223" y="245">t = T</tspan>
        </text>
        <line x1="174.5" y1="67.5" x2="308.5" y2="67.5" id="Line-3" stroke="#000000" stroke-width="1" stroke-linecap="square"></line>
        <text id="Finish-(future)" font-family="ArialMT, Arial" font-size="21" font-weight="normal" fill="#000000">
            <tspan x="213.491455" y="292">Finish </tspan>
            <tspan x="207.656982" y="315">(future)</tspan>
        </text>
    </g>
</svg>